<svg width="702" height="352" viewBox="0 0 702 352" fill="none" xmlns="http://www.w3.org/2000/svg">
<g clip-path="url(#clip0_69_4326)">
<g clip-path="url(#clip1_69_4326)">
<path d="M0 24C0 10.7452 10.7452 0 24 0H678C691.255 0 702 10.7452 702 24V328C702 341.255 691.255 352 678 352H24C10.7452 352 0 341.255 0 328V24Z" fill="#E1F2BE"/>
<mask id="mask0_69_4326" style="mask-type:luminance" maskUnits="userSpaceOnUse" x="0" y="0" width="702" height="352">
<path d="M0 24C0 10.7452 10.7452 0 24 0H678C691.255 0 702 10.7452 702 24V328C702 341.255 691.255 352 678 352H24C10.7452 352 0 341.255 0 328V24Z" fill="white"/>
</mask>
<g mask="url(#mask0_69_4326)">
</g>
</g>
</g>
<defs>
<clipPath id="clip0_69_4326">
<rect width="702" height="352" fill="white"/>
</clipPath>
<clipPath id="clip1_69_4326">
<rect width="702" height="352" fill="white"/>
</clipPath>
</defs>
</svg>
