<svg width="357" height="31" viewBox="0 0 357 31" fill="none" xmlns="http://www.w3.org/2000/svg">
<path d="M13.5284 4.76V1.62842H30.5642V4.76H23.5495L22.9232 7.89158H29.4368V22.4221H26.18V11.0232H17.6621V22.6726H14.6558V8.76842L12.4011 11.3989C11.9 10.7309 11.733 10.5221 11.9 10.7726C10.0628 8.26737 8.64316 6.34667 7.64105 5.01053C6.05439 7.93333 3.96667 10.8144 1.37789 13.6537C0.960351 12.3175 0.501053 11.1067 0 10.0211C2.58877 7.18175 4.59298 3.96667 6.01263 0.375789L9.77053 0.626316L9.14421 1.87895C10.2298 3.04807 11.6912 4.76 13.5284 7.01474C14.0295 7.5993 14.4053 8.0586 14.6558 8.39263V7.89158H19.2905L19.9168 4.76H13.5284ZM28.3095 30.0632C27.0568 28.894 25.3032 27.3491 23.0484 25.4284C22.6309 25.0109 22.2968 24.7186 22.0463 24.5516C21.0442 26.3888 18.6225 28.3512 14.7811 30.4389C13.946 29.2698 13.1526 28.3095 12.4011 27.5579C18.0796 25.5537 20.6684 22.2968 20.1674 17.7874L20.2926 12.5263H23.6747V17.6621C23.5912 19.0818 23.4242 20.4179 23.1737 21.6705C24.3428 22.5056 25.9295 23.7165 27.9337 25.3032C29.1028 26.1382 30.0214 26.8063 30.6895 27.3074L28.3095 30.0632ZM9.26947 29.9379C8.01684 28.6853 6.05439 26.9316 3.38211 24.6768C2.46351 23.7582 1.75368 23.0902 1.25263 22.6726L3.25684 20.4179L6.63895 23.1737L9.64526 18.1632H1.12737V15.0316H13.2779V18.2884L9.14421 25.4284L11.6495 27.4326L9.26947 29.9379ZM7.39053 14.5305C7.05649 13.946 6.55544 13.0691 5.88737 11.9C5.46982 11.2319 5.13579 10.6891 4.88526 10.2716L7.39053 8.76842C7.55754 8.93544 7.76632 9.22772 8.01684 9.64526C8.93544 11.0649 9.64526 12.1923 10.1463 13.0274L7.39053 14.5305ZM51.2326 8.14211L47.2242 8.89368C46.6396 6.38842 45.1782 5.17754 42.84 5.26105C39.1656 5.17754 37.2867 8.39263 37.2032 14.9063C38.4558 12.6516 40.627 11.5242 43.7168 11.5242C48.7274 11.8582 51.4414 14.5723 51.8589 19.6663C51.5249 25.3449 48.5186 28.3095 42.84 28.56C36.1593 28.6435 32.8607 24.3428 32.9442 15.6579C33.1112 6.63895 36.4098 2.04596 42.84 1.87895C47.433 1.96246 50.2305 4.05018 51.2326 8.14211ZM42.7147 25.4284C45.8046 25.2614 47.433 23.466 47.6 20.0421C47.5165 16.6182 45.8881 14.8646 42.7147 14.7811C39.3744 14.9481 37.6207 16.5347 37.4537 19.5411C37.6207 23.2989 39.3744 25.2614 42.7147 25.4284ZM62.2558 28.1842V8.51789C60.1681 10.3551 57.4958 11.9418 54.2389 13.2779C54.2389 12.0253 54.2389 10.7309 54.2389 9.39474C58.4979 7.55754 61.4625 5.13579 63.1326 2.12947H66.5147V28.1842H62.2558ZM77.5379 14.7811V14.6558C74.5316 13.8207 72.9867 11.8582 72.9032 8.76842C73.3207 4.42596 76.2435 2.12947 81.6716 1.87895C86.9326 2.12947 89.8137 4.42596 90.3147 8.76842C90.3147 11.8582 88.6863 13.8207 85.4295 14.6558V14.7811C89.0204 15.6161 90.8993 17.7874 91.0663 21.2947C90.9828 26.0547 87.726 28.4765 81.2958 28.56C75.2832 28.393 72.1933 25.9712 72.0263 21.2947C72.1933 17.9544 74.0305 15.7832 77.5379 14.7811ZM81.5463 25.5537C84.8032 25.4702 86.5151 24.0505 86.6821 21.2947C86.5986 18.6225 84.8449 16.994 81.4211 16.4095C78.2477 16.9105 76.6193 18.4972 76.5358 21.1695C76.7028 24.0088 78.373 25.4702 81.5463 25.5537ZM81.6716 5.01053C78.9993 5.09404 77.5796 6.38842 77.4126 8.89368C77.4961 11.2319 78.9158 12.6516 81.6716 13.1526C84.3439 12.6516 85.7218 11.2737 85.8053 9.01895C85.6382 6.51368 84.2604 5.17754 81.6716 5.01053ZM95.4505 29.9379C94.7825 29.2698 94.0309 28.4347 93.1958 27.4326C95.7011 25.6789 97.5382 23.9253 98.7074 22.1716L94.3232 18.1632C94.4067 17.9961 94.4902 17.7039 94.5737 17.2863C95.3253 13.946 95.8681 11.2737 96.2021 9.26947H93.6968V6.13789H96.7032C97.0372 3.79965 97.246 1.83719 97.3295 0.250526L101.213 0.501053C100.962 2.50526 100.67 4.38421 100.336 6.13789H105.346V9.39474C105.012 14.4888 104.177 18.4137 102.841 21.1695C103.175 21.5035 103.718 21.9628 104.469 22.5474C105.973 23.7165 107.058 24.6351 107.726 25.3032L104.971 27.9337C104.302 27.1821 103.133 26.0965 101.463 24.6768C101.547 24.7604 101.421 24.6351 101.087 24.3011C100.085 25.8042 98.2063 27.6832 95.4505 29.9379ZM106.724 17.2863V13.6537H113.614V10.1463L118.374 5.26105H107.852V1.75368H123.008V5.38632L117.497 11.2737V13.6537H123.76V17.2863H117.497V25.5537C117.58 28.226 116.161 29.6039 113.238 29.6874C111.568 29.7709 110.106 29.8126 108.854 29.8126C108.854 29.6456 108.812 29.3533 108.728 28.9358C108.561 27.5996 108.394 26.6811 108.227 26.18C109.396 26.2635 110.524 26.3053 111.609 26.3053C113.029 26.3888 113.697 25.7207 113.614 24.3011V17.2863H106.724ZM98.0811 17.2863C98.2481 17.4533 98.4986 17.6621 98.8326 17.9126C99.5007 18.4137 100.002 18.8312 100.336 19.1653C101.421 16.66 102.089 13.3614 102.34 9.26947H99.8347C99.7512 9.68702 99.626 10.3133 99.4589 11.1484C99.1249 12.9021 98.6656 14.9481 98.0811 17.2863ZM133.906 30.1884V17.0358H140.42V7.76632H144.178V10.3968H155.076V13.5284H144.178V17.0358H153.447V30.1884H149.815V28.3095H137.664V30.1884H133.906ZM128.52 30.1884C127.518 29.2698 126.432 28.4347 125.263 27.6832C126.516 25.9295 127.309 24.0923 127.643 22.1716C128.061 20.3344 128.269 17.4533 128.269 13.5284V3.50737H140.169L139.293 0.375789L143.802 0.125263C144.053 1.21088 144.303 2.33825 144.554 3.50737H155.702V6.76421H132.027V13.7789C132.027 18.1214 131.777 21.3782 131.276 23.5495C130.858 25.7207 129.94 27.9337 128.52 30.1884ZM137.664 20.1674V25.4284H149.815V20.1674H137.664ZM171.36 29.6874C171.276 29.3533 171.151 28.8105 170.984 28.0589C170.817 27.3074 170.692 26.8063 170.608 26.5558C172.195 26.5558 173.74 26.5558 175.243 26.5558C177.08 26.5558 177.999 25.9295 177.999 24.6768C178.082 24.2593 178.166 23.5077 178.249 22.4221C178.333 21.9211 178.375 21.5453 178.375 21.2947H170.859C170.441 25.8042 166.851 28.8523 160.086 30.4389C159.585 29.4368 158.959 28.393 158.207 27.3074C163.802 26.4723 166.767 24.4681 167.101 21.2947H164.596V20.0421C163.009 20.9607 161.172 21.9211 159.084 22.9232C158.583 21.754 157.999 20.6684 157.331 19.6663C161.005 18.2467 163.886 16.6182 165.974 14.7811H157.832V11.6495H168.479C169.064 10.7309 169.481 9.85404 169.732 9.01895H159.209V6.01263H164.596C163.51 4.67649 162.425 3.46561 161.339 2.38L164.345 0.876842C165.264 1.71193 166.516 2.92281 168.103 4.50947L165.347 6.01263H170.608C170.942 4.25895 171.235 2.29649 171.485 0.125263H175.243C174.993 2.29649 174.7 4.25895 174.366 6.01263H179.878L177.748 4.50947C178.584 3.75789 179.711 2.63053 181.131 1.12737C180.964 1.21088 181.047 1.08561 181.381 0.751579L184.513 2.38C184.095 2.79754 183.511 3.42386 182.759 4.25895C182.091 5.01053 181.548 5.59509 181.131 6.01263H186.141V9.01895H173.615C173.364 10.0211 173.03 10.8979 172.613 11.6495H187.519V14.7811H179.502C181.423 16.7853 184.262 18.3302 188.02 19.4158C187.435 20.5014 186.893 21.6288 186.392 22.7979C184.721 22.1298 183.26 21.4618 182.007 20.7937C181.924 22.6309 181.799 24.2593 181.632 25.6789C181.548 28.3512 179.794 29.6874 176.371 29.6874C174.867 29.6874 173.197 29.6874 171.36 29.6874ZM170.734 14.7811C169.815 16.0337 168.604 17.2028 167.101 18.2884H178.5C177.414 17.2028 176.371 16.0337 175.368 14.7811H170.734ZM198.793 6.01263V2.12947H228.605V6.01263H214.576V13.1526L216.705 10.6474C217.54 11.1484 218.751 11.9 220.338 12.9021C223.344 14.9063 225.682 16.4512 227.353 17.5368L224.597 21.0442C221.256 18.5389 217.916 16.1589 214.576 13.9042V29.9379H210.192V6.01263H198.793ZM233.115 19.5411V4.76H239.378C239.127 4.42596 238.71 3.88316 238.125 3.13158C237.541 2.46351 237.081 1.96246 236.747 1.62842L240.129 0C240.213 0.167018 240.422 0.375789 240.756 0.626316C242.008 2.04596 242.844 3.04807 243.261 3.63263L241.132 4.76H247.896C249.065 3.08982 250.109 1.54491 251.027 0.125263L254.911 1.25263C254.744 1.50316 254.493 1.83719 254.159 2.25474C253.324 3.42386 252.698 4.25895 252.28 4.76H258.293V19.5411H247.645V22.1716H260.798V25.5537H247.645V30.1884H243.762V25.5537H230.609V22.1716H243.762V19.5411H233.115ZM254.535 7.89158H247.645V10.7726H254.535V7.89158ZM247.645 13.5284V16.4095H254.535V13.5284H247.645ZM236.873 13.5284V16.4095H243.762V13.5284H236.873ZM236.873 7.89158V10.7726H243.762V7.89158H236.873ZM286.477 21.9211V20.5432H279.086C278.752 22.1298 278.126 23.5912 277.207 24.9274C280.715 25.846 285.934 26.3053 292.865 26.3053C292.615 26.8063 292.197 27.7249 291.613 29.0611C291.446 29.3116 291.362 29.4786 291.362 29.5621C283.095 29.2281 277.374 28.393 274.201 27.0568C272.364 28.1425 269.274 29.2281 264.932 30.3137C264.681 29.8126 264.138 28.8523 263.303 27.4326C263.136 27.2656 263.011 27.0986 262.927 26.9316C266.268 26.514 268.731 26.013 270.318 25.4284C268.982 24.5933 267.729 23.466 266.56 22.0463L268.689 20.5432H265.433V6.76421H275.955V4.50947H263.303V1.50316H292.239V4.50947H279.713C279.713 5.26105 279.713 6.01263 279.713 6.76421H290.109V21.9211H286.477ZM279.587 15.0316C279.587 15.3656 279.546 15.8249 279.462 16.4095C279.462 16.9105 279.462 17.2863 279.462 17.5368H286.477V15.0316H279.587ZM269.065 9.77053V12.2758H275.955C275.955 11.4407 275.955 10.6056 275.955 9.77053H269.065ZM286.477 9.77053H279.713L279.587 12.2758H286.477V9.77053ZM275.829 17.5368V15.0316H269.065V17.5368H275.829ZM269.441 20.5432C270.694 21.7958 272.072 22.7979 273.575 23.5495C274.41 22.8814 274.994 21.8793 275.328 20.5432H269.441ZM303.513 11.5242V8.01684H309.275C309.358 5.34456 309.4 2.79754 309.4 0.375789H313.158C313.158 3.71614 313.116 6.26316 313.033 8.01684H324.306V11.5242H312.907C312.657 19.04 310.026 25.2614 305.016 30.1884L302.135 27.3074C306.644 23.1319 308.982 17.8709 309.149 11.5242H303.513ZM295.371 18.6642C295.12 16.827 294.869 15.1151 294.619 13.5284C297.458 9.60351 299.588 5.17754 301.007 0.250526L304.891 1.37789C304.055 3.79965 303.053 6.13789 301.884 8.39263V30.0632H298.252V14.6558C298.001 14.9898 297.625 15.4909 297.124 16.1589C296.957 16.5765 296.373 17.4116 295.371 18.6642ZM317.542 29.1863C314.786 29.2698 313.45 28.0172 313.534 25.4284V12.2758H317.292V24.4263C317.208 25.4284 317.626 25.8877 318.544 25.8042H319.546C320.465 25.8877 320.966 25.3449 321.049 24.1758C321.049 24.0923 321.049 24.0088 321.049 23.9253C321.3 22.0881 321.467 20.5432 321.551 19.2905C322.553 19.6246 323.722 20.0421 325.058 20.5432C324.807 22.7979 324.557 24.5933 324.306 25.9295C323.889 28.1842 322.427 29.2698 319.922 29.1863H317.542ZM319.922 7.51579C318.252 6.01263 316.665 4.67649 315.162 3.50737L317.542 1.12737C317.709 1.21088 317.96 1.37789 318.294 1.62842C319.546 2.46351 320.924 3.50737 322.427 4.76L319.922 7.51579ZM353.743 28.3095C352.741 26.5558 351.697 24.8856 350.612 23.2989L353.117 22.2968L351.864 21.0442L342.469 21.1695C342.804 21.5035 343.263 22.0046 343.847 22.6726C344.432 23.2572 344.849 23.6747 345.1 23.9253L342.469 25.8042C341.968 25.1361 341.259 24.2593 340.34 23.1737C340.006 22.8396 339.755 22.5891 339.588 22.4221L341.342 21.1695C336.749 21.3365 332.114 21.42 327.438 21.42L327.062 18.5389C331.655 18.5389 335.998 18.5389 340.089 18.5389V16.66H329.317V6.63895H340.089V5.01053H327.438V2.25474H340.089V0.250526H343.722V2.25474H356.499V5.01053H343.722V6.63895H354.495V16.66H351.864C352.449 17.1611 353.284 17.9126 354.369 18.9147C355.455 19.9168 356.29 20.7102 356.875 21.2947L354.369 22.9232C354.62 23.3407 354.996 23.9253 355.497 24.6768C356.248 25.6789 356.749 26.3888 357 26.8063L353.743 28.3095ZM337.835 29.5621C335.162 29.5621 333.826 28.393 333.826 26.0547V22.2968H337.459V25.1779C337.375 26.347 338.127 26.8898 339.714 26.8063H344.098C345.601 26.8898 346.478 26.4305 346.728 25.4284C346.895 24.8439 347.021 24.0505 347.104 23.0484C347.772 23.2989 348.816 23.7165 350.236 24.3011C350.403 24.3846 350.528 24.4263 350.612 24.4263C350.361 25.5119 350.111 26.3888 349.86 27.0568C349.359 28.8105 347.772 29.6456 345.1 29.5621H337.835ZM329.693 28.9358C329.359 28.7688 328.858 28.5182 328.189 28.1842C327.521 27.7667 327.02 27.4744 326.686 27.3074C327.772 25.6372 328.732 23.8 329.567 21.7958L332.699 23.0484C332.031 24.6351 331.029 26.5975 329.693 28.9358ZM350.862 8.89368H343.722V10.6474H350.862V8.89368ZM332.949 8.89368V10.6474H340.089V8.89368H332.949ZM343.722 12.6516V14.28H350.862V12.6516H343.722ZM332.949 12.6516V14.28H340.089V12.6516H332.949ZM349.484 18.4137L347.981 16.9105L348.482 16.66H343.722V18.5389C345.643 18.5389 347.564 18.4972 349.484 18.4137Z" fill="#00A611"/>
</svg>
